<svg width="219" height="74" viewBox="0 0 219 74" fill="none" xmlns="http://www.w3.org/2000/svg">
<path d="M77.7005 35.797C77.9902 35.797 78.2436 36.0487 78.2436 36.3363C78.2436 36.8756 78.2074 37.4149 78.1712 37.9182C78.135 38.4215 78.0988 38.9249 78.0626 39.3922L77.7729 44.2098C77.5919 47.086 77.447 49.9981 77.266 52.8743C77.1211 55.7504 76.9763 58.6625 76.7953 61.5387C76.759 61.8623 76.5418 62.078 76.2521 62.078H70.8931C70.6396 62.078 70.3862 61.8623 70.35 61.5746L68.3585 45.1086L66.2945 61.5746C66.2583 61.8623 66.041 62.078 65.7514 62.078H60.4648C60.1751 62.078 59.9216 61.8263 59.9216 61.5387L58.5095 36.3723C58.4733 36.2284 58.5457 36.0846 58.6543 35.9768C58.7629 35.8689 58.9078 35.797 59.0526 35.797H62.5287C62.8184 35.797 63.0719 36.0487 63.0719 36.3363L63.6874 49.0993L65.4255 36.4442C65.4617 36.1925 65.679 35.9768 65.9686 35.9768H70.7483C71.038 35.9768 71.2914 36.1925 71.3276 36.4801L73.0295 49.4588L73.645 36.3363C73.645 36.0487 73.8985 35.797 74.1882 35.797H77.7005Z" fill="black"/>
<path d="M86.2465 35.9768C86.3189 36.1206 86.3913 36.2644 86.3551 36.4082L83.3859 61.5746C83.3497 61.8623 83.1325 62.078 82.8428 62.078H79.1494C78.9684 62.078 78.8236 62.0061 78.7149 61.8982C78.6063 61.7544 78.5701 61.6106 78.6063 61.4668L81.5755 36.3003C81.6117 36.0127 81.8289 35.797 82.1186 35.797H85.812C85.9568 35.797 86.1379 35.8689 86.2465 35.9768Z" fill="black"/>
<path d="M100.093 35.797C100.419 35.797 100.672 36.0487 100.672 36.3363V61.5027C100.672 61.8263 100.419 62.078 100.093 62.078H96.7976C96.5441 62.078 96.3269 61.8982 96.2544 61.6825L92.8508 49.8902V61.5027C92.8508 61.8263 92.6335 62.078 92.3076 62.078H89.1212C88.7953 62.078 88.578 61.8263 88.578 61.5027V36.3363C88.578 36.0487 88.7953 35.797 89.1212 35.797H92.5611C92.8145 35.797 93.0318 35.9768 93.1042 36.1925L96.4717 47.9848V36.3363C96.4717 36.0487 96.7252 35.797 97.0148 35.797H100.093Z" fill="black"/>
<path d="M115.066 61.4668C115.175 61.6466 115.211 61.8623 115.103 62.042C114.994 62.2218 114.777 62.3296 114.559 62.3296C114.125 62.2937 113.69 62.2218 113.256 62.078C112.858 61.9342 112.496 61.7185 112.206 61.4308C111.699 61.7904 111.12 62.0061 110.54 62.1858C109.925 62.3296 109.273 62.4375 108.621 62.4375C106.919 62.4375 105.507 61.9342 104.385 60.9635C103.262 59.9928 102.719 58.6266 102.719 56.8649C102.719 54.1326 102.719 51.4362 102.719 48.7398C102.719 46.0434 102.755 43.347 102.755 40.6146C102.755 39.7517 102.9 38.9968 103.226 38.3496C103.516 37.7384 103.95 37.1632 104.529 36.7318C105.073 36.3003 105.724 35.9768 106.412 35.7611C107.1 35.5454 107.861 35.4375 108.621 35.4375C109.418 35.4375 110.178 35.5454 110.902 35.7611C111.626 36.0127 112.242 36.3363 112.821 36.8037C113.365 37.2351 113.799 37.8103 114.125 38.4934C114.415 39.1765 114.596 39.9675 114.596 40.8303V41.6213C114.596 41.9089 114.342 42.1605 114.016 42.1605H110.287C109.997 42.1605 109.744 41.9089 109.744 41.6213V40.1113C109.744 40.0394 109.707 40.0394 109.707 40.0394C109.707 40.0034 109.671 39.9675 109.671 39.9675C109.635 39.9675 109.599 39.9315 109.599 39.9315C109.563 39.8956 109.49 39.8596 109.273 39.8237C109.092 39.7517 108.947 39.7517 108.802 39.7158C108.657 39.7158 108.549 39.7158 108.476 39.7158H108.223C108.15 39.7158 108.042 39.7158 107.969 39.7517C107.861 39.7877 107.752 39.8237 107.643 39.8237C107.607 39.8596 107.571 39.8956 107.499 39.9315C107.499 42.9155 107.535 45.8636 107.535 48.7398C107.535 51.6878 107.535 54.5999 107.535 57.584C107.535 57.7637 107.607 57.7997 107.607 57.8356C107.752 57.9435 107.824 57.9794 107.861 58.0154H107.897C108.042 58.0873 108.15 58.1233 108.259 58.1233C108.404 58.1592 108.512 58.1592 108.621 58.1592C108.911 58.1592 109.2 58.0873 109.49 57.9075C109.563 57.8716 109.78 57.7637 109.78 57.2604V53.4495H109.056C108.766 53.4495 108.512 53.2338 108.512 52.9102V49.7824C108.512 49.4588 108.766 49.2431 109.056 49.2431H114.016C114.161 49.2431 114.306 49.279 114.415 49.3869C114.523 49.4948 114.596 49.6386 114.596 49.7824C114.559 50.9328 114.559 52.0833 114.559 53.2338V56.7211C114.559 56.8649 114.559 57.1885 114.559 57.7278C114.559 58.2671 114.596 58.8423 114.668 59.4175C114.704 59.7411 114.741 60.0287 114.777 60.3523C114.813 60.568 114.849 60.8197 114.922 60.9994C114.922 60.9994 114.922 61.0354 114.922 61.0713C114.958 61.1432 114.994 61.2511 114.994 61.323C115.03 61.3949 115.066 61.4308 115.066 61.4668Z" fill="black"/>
<path d="M132.733 35.797C133.059 35.797 133.313 36.0487 133.313 36.3363V39.536C133.313 39.8237 133.059 40.0753 132.733 40.0753C128.75 40.0753 127.99 44.3536 127.121 49.315C126.034 55.319 124.803 62.1139 117.127 62.1139C116.801 62.1139 116.584 61.8623 116.584 61.5387V58.2311C116.584 57.9075 116.801 57.6918 117.127 57.6918C121.038 57.6918 121.762 53.4854 122.595 48.6319C123.608 42.6279 124.767 35.797 132.733 35.797Z" fill="black"/>
<path d="M11.4736 35.6898C11.7953 35.6898 12.0455 35.9422 12.0455 36.2306V61.4642C12.0455 61.7886 11.7953 62.041 11.4736 62.041H7.79209C7.50614 62.041 7.25594 61.7886 7.25594 61.4642V50.4695H4.71817V61.4642C4.71817 61.7886 4.50371 62.041 4.18202 62.041H0.53621C0.214521 62.041 6.10352e-05 61.7886 6.10352e-05 61.4642V36.2306C6.10352e-05 35.9422 0.214521 35.6898 0.53621 35.6898H4.18202C4.50371 35.6898 4.71817 35.9422 4.71817 36.2306V46.2159H7.25594V36.2306C7.25594 35.9422 7.50614 35.6898 7.79209 35.6898H11.4736Z" fill="black"/>
<path d="M27.6095 35.4375C34.9726 35.4375 40.9775 41.4936 40.9775 48.9555C40.9775 56.3814 34.9726 62.4375 27.6095 62.4375C20.2106 62.4375 14.2415 56.3814 14.2415 48.9555C14.2415 41.4936 20.2106 35.4375 27.6095 35.4375ZM27.6095 58.0036C32.5421 58.0036 36.581 53.9302 36.581 48.9555C36.581 43.9448 32.5421 39.8714 27.6095 39.8714C22.6412 39.8714 18.6379 43.9448 18.6379 48.9555C18.6379 53.9302 22.6412 58.0036 27.6095 58.0036Z" fill="black"/>
<path d="M41.5502 35.6898H56.2764C56.5624 35.6898 56.8126 35.9422 56.8126 36.2306V39.4388C56.8126 39.7272 56.5624 39.9796 56.2764 39.9796H51.2009L47.6265 61.5723C47.5908 61.8247 47.3406 62.041 47.0904 62.041H43.4446C43.2659 62.041 43.1229 61.9689 43.0157 61.8247C42.9084 61.7165 42.8727 61.5363 42.9084 61.3921L46.447 39.9796H41.5502C41.2285 39.9796 41.014 39.7272 41.014 39.4388V36.2306C41.014 35.9422 41.2285 35.6898 41.5502 35.6898Z" fill="black"/>
<rect x="6.10352e-05" y="69.1875" width="148.5" height="3.9375" rx="1.96875" fill="#92020C"/>
<path fill-rule="evenodd" clip-rule="evenodd" d="M164.915 14.5322C160.03 8.42323 154.375 3.38335 149.015 1.4845C140.997 -1.35589 136.194 0.68778 137.4 1.04844C138.605 1.40909 140.485 2.78981 141.153 3.40525C141.821 4.0207 141.256 4.9295 140.05 4.56884C139.802 4.4945 139.346 4.10755 138.734 3.58824C136.378 1.58829 131.708 -2.37487 127.664 1.9931C123.633 6.34703 121.3 6.39444 120.6 6.40865C120.416 6.41239 120.345 6.41383 120.387 6.49134C120.586 6.86276 125.601 8.2722 130.157 5.2973C134.712 2.32239 135.254 7.01714 131.072 6.84397C127.727 6.70544 126.034 9.52313 125.607 10.9493C126.572 9.26834 130.45 7.16193 138.241 12.1838C139.872 13.235 141.339 16.4186 142.296 18.951L159.353 73.1244H218.874L212.785 63.6348H206.516L164.964 14.5322H164.915Z" fill="url(#paint0_linear_94_22)"/>
<defs>
<linearGradient id="paint0_linear_94_22" x1="139.521" y1="6.9203" x2="213.568" y2="70.5874" gradientUnits="userSpaceOnUse">
<stop stop-color="#950A13"/>
<stop offset="1" stop-color="#950A13" stop-opacity="0.75"/>
</linearGradient>
</defs>
</svg>
